<?xml version="1.0" encoding="UTF-8" standalone="no"?>
<!-- Created with Inkscape (http://www.inkscape.org/) -->

<svg
   width="130mm"
   height="32mm"
   viewBox="0 0 130 32"
   version="1.1"
   id="svg1"
   xml:space="preserve"
   inkscape:version="1.3 (0e150ed6c4, 2023-07-21)"
   sodipodi:docname="рисунок.svg"
   xmlns:inkscape="http://www.inkscape.org/namespaces/inkscape"
   xmlns:sodipodi="http://sodipodi.sourceforge.net/DTD/sodipodi-0.dtd"
   xmlns="http://www.w3.org/2000/svg"
   xmlns:svg="http://www.w3.org/2000/svg"><sodipodi:namedview
     id="namedview1"
     pagecolor="#ffffff"
     bordercolor="#000000"
     borderopacity="0.25"
     inkscape:showpageshadow="2"
     inkscape:pageopacity="0.0"
     inkscape:pagecheckerboard="0"
     inkscape:deskcolor="#d1d1d1"
     inkscape:document-units="mm"
     inkscape:zoom="0.51717104"
     inkscape:cx="419.5904"
     inkscape:cy="418.6236"
     inkscape:window-width="1920"
     inkscape:window-height="1017"
     inkscape:window-x="-8"
     inkscape:window-y="-8"
     inkscape:window-maximized="1"
     inkscape:current-layer="layer1" /><defs
     id="defs1" /><g
     inkscape:label="Слой 1"
     inkscape:groupmode="layer"
     id="layer1"><path
       style="fill:#cccccc;stroke-width:0.264583"
       d="m 3.314868,18.673304 -0.639495,-0.3837 1.406893,-0.70345 7.48211,-1.21504 -0.639496,2.36614 z"
       id="path1" /><path
       style="fill:#999999;stroke-width:0.264583"
       d="m 10.92488,18.737254 h 16.115316 l 0.511598,-3.83698 -15.987418,1.47084 z"
       id="path2" /><path
       style="fill:#808080;stroke-width:0.264583"
       d="m 27.551794,14.900274 14.452624,-1.1511 0.255799,4.98808 H 27.040196 Z"
       id="path3" /><path
       style="fill:#666666;stroke-width:0.264583"
       d="m 42.004418,13.749174 18.417505,-1.98244 -3.836979,6.72455 -14.324727,0.24597 z"
       id="path4" /><path
       style="fill:#333333;stroke-width:0.264583"
       d="m 60.421923,11.766734 6.60015,-1.23403 9.360387,2.3514 -14.967574,6.19504 -4.829942,-0.58786 z"
       id="path5" /><path
       style="fill:#1a1a1a;stroke-width:0.264583"
       d="m 67.022071,10.532704 7.868149,-1.6278899 4.02451,-1.6279 3.30101,-0.27131 -2.21574,2.1253 0.0904,1.4017999 -2.17052,1.23403 -2.39662,-0.60096 -3.82103,0.54263 z"
       id="path6" /><path
       style="fill:#1a1a1a;stroke-width:0.264583"
       d="m 71.70223,11.708404 3.82103,-0.54263 2.39662,0.60096 2.17052,-1.23403 L 80,9.1309041 l 2.21574,-2.1253"
       id="path7" /><path
       style="fill:#000000;stroke-width:0.264583"
       d="m 82.21574,7.0056041 4.52192,1.58267 -0.7235,3.9792999 -3.79842,1.04004 L 80.0904,10.532704 80,9.1309041 Z"
       id="path8" /><path
       style="fill:#4d4d4d;stroke-width:0.264583"
       d="m 61.414886,19.079144 0.989475,0.32958 0.959247,-0.67147 8.338622,0.34189 c 0,0 -0.16669,1.5766 0,1.5766 0.16668,0 5.25675,0.3837 5.25675,0.3837 v -2.30219 l 8.62714,-5.30783 -0.30016,-0.66246 -3.07022,0.84065 -2.12534,-3.07491 -2.17052,1.23403 -2.39662,-0.60096 -3.821,0.54263 4.6802,1.1757 z"
       id="path9" /><path
       style="fill:#333333;stroke-width:0.264583"
       d="m 76.95898,21.039444 1.24095,0.54357 8.24951,-4.7003 -0.86332,-3.45329 -8.62714,5.30783 z"
       id="path10" /><path
       style="fill:#808080;stroke-width:0.264583"
       d="m 85.58612,13.429424 c 0,0 1.72664,1.05517 2.58996,0.86332 0.86332,-0.19184 3.03761,-1.18306 3.03761,-1.18306 l 1.37492,-0.79937 0.79937,-2.30219 -0.5116,-1.8865199 -2.39811,-0.73542 -3.74061,1.20209 -0.7235,3.9792999 -0.7282,0.19939 z"
       id="path11" /><path
       style="fill:#000000;stroke-width:0.264583"
       d="m 87.37671,31.079534 1.18307,-0.15987 1.37492,-1.43887 0.47962,-5.40375 -0.57555,-2.49403 -1.19565,-7.42512 -0.46704,0.13485 c 0,0 -0.83135,0.0233 -0.79937,0.0233 0.032,0 0.83134,7.4588 0.83134,7.4588 l -0.89529,-0.19185 -2.20627,1.79059 c 0,0 -0.28777,3.06959 -0.25579,3.26144 0.032,0.19184 0.73542,2.97365 0.73542,2.97365 z"
       id="path12" /><path
       style="fill:#4d4d4d;stroke-width:0.264583"
       d="m 85.58612,13.429424 0.86332,3.45329 0.92727,-2.56667 z"
       id="path13" /><path
       style="fill:#000000;stroke-width:0.264583"
       d="m 92.87638,8.1216041 2.01441,-0.22382 2.04639,1.82256 -0.54357,2.5899699 -1.82256,0.86332 -1.98244,-0.86332 0.79937,-2.30219 z"
       id="path14" /><path
       style="fill:#333333;stroke-width:0.264583"
       d="m 82.71315,6.4855841 -0.49741,0.52002 4.52192,1.58267 3.74061,-1.20209 2.39811,0.73542 2.01441,-0.22382 -4.62603,-1.52525 -3.14273,0.45219 z"
       id="path16" /><path
       style="fill:#4d4d4d;stroke-width:0.264583"
       d="m 91.21369,13.109684 -0.032,2.90971 -1.34294,2.47189 9.72035,-0.36155 -0.79937,-8.4093899 h -1.82257 l -0.54357,2.5899699 -1.82256,0.86332 -1.98244,-0.86332 z"
       id="path17" /><path
       style="fill:#333333;stroke-width:0.264583"
       d="m 98.75973,9.7203441 12.15046,3.7090799 -0.57555,4.57241 -10.77554,0.1279 z"
       id="path18" /><path
       style="fill:#4d4d4d;stroke-width:0.264583"
       d="m 110.91019,13.429424 6.71471,1.11912 -0.15987,3.32539 -7.13039,0.1279 z"
       id="path19" /><path
       style="fill:#808080;stroke-width:0.264583"
       d="m 117.6249,14.548544 10.48775,1.82257 0.79937,0.3837 -2.33417,1.24702 -9.11282,-0.1279 z"
       id="path20" /><path
       style="fill:#333333;stroke-width:0.264583"
       d="m 65.130228,19.916654 3.926711,1.87564 2.645291,-1.13655 v -1.5766 l -6.601976,-0.34189 z"
       id="path23" /><path
       style="fill:#4d4d4d;stroke-width:0.264583"
       d="m 69.056939,21.792294 9.142991,-0.20928 -1.24095,-0.54357 -5.25675,-0.3837 z"
       id="path24" /><path
       style="fill:#1a1a1a;stroke-width:0.264583"
       d="m 78.19993,21.583014 4.67149,-1.59949 5.03314,-1.01893 -0.52785,-4.64855 -0.92727,2.56667 z"
       id="path25" /><path
       style="fill:#1a1a1a;stroke-width:0.264583"
       d="m 91.21369,13.109684 -0.032,2.90971 -1.34294,2.47189 -0.50178,0.13566 -0.69385,-4.46905 z"
       id="path26" /><path
       style="fill:#1a1a1a;stroke-width:0.264583"
       d="m 65.100254,18.737254 0.158268,7.91611 -0.452191,0.20349 c 0,0 -0.203489,2.26096 -0.723509,2.1253 -0.520022,-0.13566 -1.379188,0.13566 -1.288748,-0.61046 0.09044,-0.74612 0.158266,-4.97412 0.158266,-4.97412 l 1.514845,0.0226 0.06783,-4.68293 z"
       id="path27" /><path
       style="fill:#1a1a1a;stroke-width:0.264583"
       d="m 62.95234,23.397574 c 0,0 -2.464448,3.36883 -0.158266,4.97412 2.30618,1.60528 0.158266,-4.97412 0.158266,-4.97412 z"
       id="path28" /><path
       style="fill:#1a1a1a;stroke-width:0.264583"
       d="m 62.95234,23.397574 c 0,0 0.764299,-1.17021 1.514843,0.0226 0.750543,1.19282 -1.514843,-0.0226 -1.514843,-0.0226 z"
       id="path29" /><path
       style="fill:#1a1a1a;stroke-width:0.264583"
       d="m 86.87544,19.172934 -0.0583,2.18625 -1.87053,1.64671 -0.43166,3.77303 0.33574,-0.1439 0.25579,-3.26144 2.20627,-1.79059 0.0664,-2.51203 z"
       id="path30" /><path
       style="fill:#1a1a1a;stroke-width:0.264583"
       d="m 85.94705,4.6043741 -3.2339,1.88121 3.73629,0.2611 v -2.04639 z"
       id="path31" /><path
       style="fill:#4d4d4d;stroke-width:0.264583"
       d="m 86.44944,4.7002941 1.75861,-0.0959 2.05671,1.76816 -3.14273,0.45219 -0.67259,-0.078 z"
       id="path32" /><path
       style="fill:#1a1a1a;stroke-width:0.264583"
       d="m 85.94705,4.6043741 2.261,2e-5 -1.75861,0.0959 z"
       id="path33" /><path
       style="fill:#333333;stroke-width:0.264583"
       d="m 76.38246,12.884104 -2.75403,4.90629 8.58731,-4.18278 -4.29586,-1.84088 z"
       id="path34" /><path
       style="fill:#1a1a1a;stroke-width:0.264583"
       d="m 73.62843,17.790394 -2.80794,-2.63433 5.56197,-2.27196 z"
       id="path35" /><path
       style="fill:#cccccc;stroke-width:0.264583"
       d="m 125.37529,15.895414 c 0,0 -0.11248,2.07207 -0.0212,2.08924 0.0913,0.0172 1.22377,0.0172 1.22377,0.0172 l 2.33417,-1.24702 -0.79937,-0.3837 z"
       id="path36" /><path
       style="fill:#b3b3b3;stroke-width:0.264583"
       d="m 122.86877,15.459824 c 0,0 -0.24195,2.48656 -0.17756,2.48746 0.0644,7.9e-4 2.66288,0.0374 2.66288,0.0374 l 0.0212,-2.08924 z"
       id="path37" /><path
       style="fill:#333333;stroke-width:0.264583"
       d="m 91.19769,14.564534 3.37336,-1.3909 -1.98244,-0.86332 -1.37492,0.79937 z"
       id="path38" /><path
       style="fill:#333333;stroke-width:0.264583"
       d="m 94.69892,18.310504 4.46049,-4.38547 0.39969,4.2047 z"
       id="path39" /></g></svg>
